<svg width="26" height="25" viewBox="0 0 26 25" fill="none" xmlns="http://www.w3.org/2000/svg">
<path d="M19.3707 21.875C18.4829 21.875 17.6151 21.6115 16.8769 21.1179C16.1387 20.6243 15.5634 19.9227 15.2236 19.1019C14.8839 18.2811 14.795 17.3778 14.9682 16.5064C15.1414 15.635 15.5689 14.8346 16.1967 14.2064C16.8245 13.5781 17.6243 13.1503 18.495 12.9769C19.3658 12.8036 20.2683 12.8926 21.0885 13.2326C21.9088 13.5726 22.6098 14.1484 23.103 14.8871C23.5963 15.6258 23.8595 16.4943 23.8595 17.3828C23.8582 18.5738 23.3849 19.7157 22.5434 20.5578C21.7018 21.4 20.5609 21.8737 19.3707 21.875ZM19.3707 14.4531C18.7917 14.4531 18.2258 14.6249 17.7443 14.9469C17.2629 15.2688 16.8877 15.7263 16.6661 16.2617C16.4445 16.797 16.3866 17.3861 16.4995 17.9544C16.6125 18.5227 16.8913 19.0447 17.3007 19.4544C17.7101 19.8641 18.2318 20.1432 18.7996 20.2562C19.3675 20.3692 19.9561 20.3112 20.491 20.0895C21.026 19.8678 21.4832 19.4922 21.8048 19.0105C22.1265 18.5287 22.2982 17.9623 22.2982 17.3828C22.2973 16.6061 21.9886 15.8614 21.4398 15.3122C20.891 14.763 20.1469 14.454 19.3707 14.4531Z" fill="#1D2E5B"/>
<path d="M6.48989 21.875C5.60209 21.875 4.73423 21.6115 3.99605 21.1179C3.25787 20.6243 2.68253 19.9227 2.34279 19.1019C2.00304 18.2811 1.91415 17.3778 2.08735 16.5064C2.26055 15.635 2.68807 14.8346 3.31584 14.2064C3.9436 13.5781 4.74343 13.1503 5.61417 12.9769C6.48491 12.8036 7.38745 12.8926 8.20767 13.2326C9.02789 13.5726 9.72894 14.1484 10.2222 14.8871C10.7154 15.6258 10.9787 16.4943 10.9787 17.3828C10.9774 18.5738 10.504 19.7157 9.66251 20.5578C8.82098 21.4 7.67999 21.8737 6.48989 21.875ZM6.48989 14.4531C5.91089 14.4531 5.34489 14.6249 4.86347 14.9469C4.38205 15.2688 4.00683 15.7263 3.78526 16.2617C3.56369 16.797 3.50571 17.3861 3.61867 17.9544C3.73163 18.5227 4.01044 19.0447 4.41985 19.4544C4.82927 19.8641 5.35089 20.1432 5.91877 20.2562C6.48664 20.3692 7.07526 20.3112 7.61018 20.0895C8.14511 19.8678 8.60232 19.4922 8.92399 19.0105C9.24566 18.5287 9.41736 17.9623 9.41736 17.3828C9.41645 16.6061 9.10773 15.8614 8.55892 15.3122C8.01011 14.763 7.26602 14.454 6.48989 14.4531Z" fill="#1D2E5B"/>
<path d="M16.053 6.24999C16.2587 6.2507 16.4624 6.21061 16.6525 6.13204C16.8426 6.05346 17.0152 5.93796 17.1604 5.79221C17.3056 5.64645 17.4204 5.47334 17.4984 5.28289C17.5763 5.09243 17.6157 4.8884 17.6143 4.68261C17.6166 4.47784 17.5781 4.27467 17.501 4.08498C17.4239 3.89529 17.3097 3.72289 17.1653 3.57786C17.0208 3.43283 16.8489 3.31808 16.6596 3.24032C16.4703 3.16256 16.2674 3.12335 16.0628 3.12499C15.8578 3.12435 15.6546 3.16413 15.4649 3.24206C15.2753 3.31999 15.1028 3.43454 14.9573 3.57918C14.8119 3.72382 14.6964 3.89571 14.6173 4.08503C14.5382 4.27436 14.4972 4.47741 14.4966 4.68261C14.4959 4.8878 14.5357 5.0911 14.6136 5.28092C14.6914 5.47074 14.8059 5.64334 14.9504 5.78889C15.095 5.93443 15.2667 6.05007 15.4559 6.12918C15.6451 6.2083 15.848 6.24935 16.053 6.24999Z" fill="#1D2E5B"/>
<path d="M18.3731 9.37511H16.238C16.2029 9.37511 16.1686 9.36569 16.1384 9.34782C16.1083 9.32995 16.0835 9.30429 16.0667 9.27354L14.5181 6.43321C14.409 6.22213 14.2517 6.03973 14.0591 5.90077C13.8664 5.76181 13.6438 5.6702 13.4092 5.63336C13.1746 5.59651 12.9346 5.61546 12.7087 5.68868C12.4828 5.76189 12.2773 5.88732 12.1088 6.05479L8.70022 9.49229C8.41386 9.78479 8.25132 10.1766 8.24646 10.586C8.24646 11.4357 8.86123 11.7384 9.1491 11.9093C10.5396 12.711 11.5189 13.2975 12.0561 13.6232C12.0846 13.6406 12.1082 13.665 12.1246 13.6942C12.1411 13.7233 12.1497 13.7562 12.1498 13.7897V17.1647C12.1498 17.5851 12.4728 17.9459 12.8928 17.9669C12.9983 17.972 13.1037 17.9556 13.2027 17.9188C13.3016 17.8819 13.3921 17.8253 13.4686 17.7525C13.5451 17.6796 13.606 17.592 13.6477 17.4949C13.6894 17.3978 13.7109 17.2933 13.7111 17.1876V12.9884C13.7111 12.8644 13.6817 12.7421 13.6252 12.6317C13.5687 12.5213 13.4867 12.426 13.3861 12.3536L11.5808 11.0543C11.5582 11.0381 11.5393 11.0172 11.5253 10.993C11.5114 10.9689 11.5028 10.942 11.5002 10.9143C11.4975 10.8865 11.5008 10.8585 11.5098 10.8321C11.5188 10.8057 11.5334 10.7816 11.5525 10.7613L13.6018 8.57432C13.6228 8.55182 13.6488 8.53461 13.6777 8.5241C13.7067 8.51359 13.7377 8.51007 13.7682 8.51383C13.7987 8.51759 13.828 8.52852 13.8535 8.54574C13.879 8.56296 13.9001 8.58597 13.915 8.6129L14.9796 10.5358C15.0473 10.6576 15.1463 10.7592 15.2664 10.8299C15.3866 10.9005 15.5234 10.9377 15.6627 10.9376H18.395C18.5008 10.9377 18.6055 10.9163 18.7027 10.8748C18.8 10.8332 18.8877 10.7722 18.9608 10.6957C19.0338 10.6191 19.0905 10.5285 19.1274 10.4293C19.1643 10.3301 19.1808 10.2245 19.1757 10.1188C19.1552 9.69835 18.7932 9.37511 18.3731 9.37511Z" fill="#1D2E5B"/>
</svg>
