<svg width="23" height="22" viewBox="0 0 23 22" fill="none" xmlns="http://www.w3.org/2000/svg">
<g clip-path="url(#clip0_3_984)">
<path d="M18.2051 1.18341C17.4361 1.3637 16.6635 1.54485 16.3762 2.04149L14.1525 6.41438L2.20939 9.21451L1.7257 10.6118L10.8653 11.4659L9.31521 15.2516L5.84925 16.0642L4.97925 17.552L7.4798 17.8203L7.76512 19.0373C7.89293 19.4687 8.34135 19.7567 8.72405 19.667L9.87937 19.3961L11.219 21.6497L12.089 20.1619L11.2331 16.5111L13.7421 13.3551L18.5317 21.6484L19.4971 20.5675L16.5485 7.99105L19.2539 3.9345C19.5448 3.43701 19.3548 2.62698 19.164 1.81314C19.0695 1.41002 18.5878 1.09368 18.2051 1.18341Z" fill="#1D2E5B"/>
</g>
<defs>
<clipPath id="clip0_3_984">
<rect width="21.9833" height="22" fill="white" transform="translate(0.489014)"/>
</clipPath>
</defs>
</svg>
